<svg id="Capa_1" data-name="Capa 1" xmlns="http://www.w3.org/2000/svg" viewBox="0 0 119.43 129.78"><defs><style>.cls-1,.cls-2{fill:#fff;}.cls-2{fill-rule:evenodd;}</style></defs><title>isotipo_9</title><path class="cls-1" d="M74.78,68.59A12.58,12.58,0,0,0,74,65.86a9.44,9.44,0,0,1-.31-3c0-1,0-2.06,0-3.08-.09-1.24-.42-1.41-1.32-2.15h0a19.35,19.35,0,0,1-3.47-3c.44.22,1.38.85,2.33,1.31a3.87,3.87,0,0,0-.28-.47,14.53,14.53,0,0,0-2-2.28,13,13,0,0,0-5.29-3.11A12.91,12.91,0,0,0,49,55.5c.87-.45,1.7-1,2.11-1.2a20.52,20.52,0,0,1-3.42,2.92c-.48.42-1.16.67-1.5,1.18-.5.76-.19,2.08-.24,3-.06,1,0,2.22-.13,3.26a29.64,29.64,0,0,1-1,3.19,4.67,4.67,0,0,0,0,2.62c.17.48,1.29,2.17,2,2,1.13-.26-.18-1.76-.23-2.38a2,2,0,0,1,1.3-2c1.62-.51,4.09,1.49,4.55,2.93a9.52,9.52,0,0,1,.22,2.92c0,.68-.34,1.61.5,1.71s.75-.83.88-1.45a4.39,4.39,0,0,1,1.39-2.58,7.45,7.45,0,0,1,3-1.48,8.36,8.36,0,0,1,.85-.14,6.55,6.55,0,0,1,2.38.16A5.86,5.86,0,0,1,64.72,72c.74.86.7,1.72,1,2.73s1,1.23,1.2.23c.27-1.21-.14-2.5.19-3.73a4.28,4.28,0,0,1,1.94-2.34c.8-.55,2-1.25,2.91-.77a1.94,1.94,0,0,1,.87,2.39c-.17.5-.65.89-.51,1.36.24.81.79.31,1.19-.06A3.72,3.72,0,0,0,74.78,68.59ZM56.39,60.81c-.72,1.36-3.51,3-6,4.32,1.28-1.35,2.17-2.23,2.8-2.79l-1.09.18c-1,.2-2.58.68-3.31-.18a3,3,0,0,1,0-3.26,5.71,5.71,0,0,1,3.08-2c1.11-.36,4.42-1.35,5,.09A5.18,5.18,0,0,1,56.39,60.81Zm4.72,3.63c-.44.1-.74-.4-1.06-.38-.51,0-.62.62-1.2.25-1.07-.68-.44-3.56,0-4.35.11-.22.78-1.34,1.14-1.34s1,1.09,1.15,1.34C61.64,60.87,62.38,63.74,61.11,64.44ZM61,54.26c-.64.58-.89.77-1,.84l0,0,0,0c-.09-.07-.33-.26-1-.84a3.73,3.73,0,0,0-2.59-.59,4.62,4.62,0,0,1,2.66-.17,4.75,4.75,0,0,0,1.84,0,4.61,4.61,0,0,1,2.66.17A3.73,3.73,0,0,0,61,54.26Zm10.57,7.06c-.48,2.27-3.05,1.37-4.71,1a24,24,0,0,1-.56,2.93,16.7,16.7,0,0,0-.39-2.55c-.18-.53,0-.41-.51-.72a10.48,10.48,0,0,1-1.1-.48A4,4,0,0,1,63,58.25c0-.36-.09-1.14.16-1.42.59-.67,1.89.06,2.5-.27,1.09-.59-.57-3.24-.91-4,.8.93,2.74,3.06,2.33,4.29C69.44,57.44,71.78,58.53,71.54,61.32Z"/><path class="cls-1" d="M67.14,44.38a.86.86,0,0,0-.21-.07l-.06,0h-.28l-2.47,0c-.27-.26-.8-.58-1.26-1A2,2,0,0,1,62,41.81a1.52,1.52,0,0,1,.16-.66,3.51,3.51,0,0,0,.31-1.36A15.4,15.4,0,0,0,61.88,36a1.22,1.22,0,0,1,1.1-1.2,1.68,1.68,0,0,0,1.65-1.34c-.07-1.31-1.83-1.37-3.32-1.32-1.09,0-.05,0-2.52,0-.77.15-1.31.32-1.4,1,0,.25,0,2.2,0,2.81v5.16s-.05,1.09-.05,1.12-.1,1-.18,1.5H56.7a.23.23,0,0,0-.1.05h0a.46.46,0,0,0-.19.24H53.18a.42.42,0,0,0-.41.41v1a.42.42,0,0,0,.41.41h3.2V46a.41.41,0,0,0,.41.41h0c0,.73,0,2.12,0,2.71a2.64,2.64,0,0,1,.4-.12l.17-.05.19,0,.36-.08h0l.37-.06.19,0,.21,0H59c-.26-.38-.52-.75-.65-1,.77.37,1,.55,1.83,1h.32l.33,0h.37l.14,0,.15,0,.13,0,.08,0,.33.06.09,0c.23,0,.45.1.67.17l.59.2c0-.69,0-2.1,0-2.82a.43.43,0,0,0,.41-.37L65,46a1.61,1.61,0,0,0,3.22-.11A1.59,1.59,0,0,0,67.14,44.38Z"/><path class="cls-1" d="M61.85,71.32a.35.35,0,0,0-.27-.23h0a6.86,6.86,0,0,0-.91-.12h-.92a.18.18,0,0,0-.17.18V81.69c0,1.45,0,2.75,0,3.16,0,5.91,0,4.13,0,6v0l0,0a2,2,0,0,1-.06-.23,24.31,24.31,0,0,1-.81-6.35c0-3.51,0-8.82,0-12.88a.18.18,0,0,0-.22-.17,5.21,5.21,0,0,0-1.44.54.5.5,0,0,0-.22.4c.07,5.16-.14,10.37-.2,12.26a16.89,16.89,0,0,0,2,8.48h0c.47.86.93,1.39,1.23,1.38.91,0,6.45-5.81,6.45-11.62C66.33,79.25,63.14,74.59,61.85,71.32Z"/><path class="cls-2" d="M90.46,33.57c-.64-.38-1.29-.75-2-1.11A56.14,56.14,0,0,0,77.38,28a64.85,64.85,0,0,0-35.33,0,56.14,56.14,0,0,0-11.12,4.49c-.66.36-1.32.73-2,1.11C27.59,53,28.79,67.67,32.71,78c4.86,12.85,15.6,20.56,27,26.84,11.41-6.28,22.15-14,27-26.84C90.63,67.67,91.84,53,90.46,33.57ZM83.6,76a34.93,34.93,0,0,1-2.38,5c-.41.7-.84,1.39-1.29,2s-.92,1.31-1.41,1.93c-.26.31-.5.63-.75.93l-.59.68-.06.07L77,86.7h0l-.8.87c-.27.28-.54.57-.82.85-4.48,4.48-10,8-15.65,11.08C49.63,94,40.13,87.22,35.83,76c-2.75-7.21-4-16.81-3.77-29,0-1.35.07-2.73.13-4.15v0c.07-1.42.14-2.88.23-4.36,0-.48.06-1,.1-1.46.13,0,8.15,6.83,8.15,6.83l-4.52,2.6,10.91,9.73a2,2,0,0,0,.16-.24,7.81,7.81,0,0,1,.94-1.58A10.16,10.16,0,0,1,50.54,52l-5.45-5.5,5.83-2.68L44.7,34.64l-1.58-2.32,1.58-.46a57.92,57.92,0,0,1,30,0l1.58.46-1.58,2.32-6.21,9.13,5.82,2.68L68.9,52a10.31,10.31,0,0,1,2.37,2.34,7.88,7.88,0,0,1,1,1.58,1.25,1.25,0,0,0,.16.24l10.91-9.73-4.53-2.6s8-6.83,8.16-6.83L87,38.41C88.06,54.76,87,67.14,83.6,76Z"/><path class="cls-1" d="M42.23,84.55l4.1-6.39L44,77.37l6-7.51h0a2.25,2.25,0,0,1,.21.12l.13.07a2.7,2.7,0,0,1,1.22,1.31,5.93,5.93,0,0,1,.17,1.89V74l-3.36,2.67,3.56,1Z"/><path class="cls-1" d="M67.77,77.64l3.56-1L68,74v-.34c0-.14,0-.28,0-.42a5.41,5.41,0,0,1,.19-1.89,2.53,2.53,0,0,1,1.22-1.31l.12-.07.21-.12h0l6,7.51-2.37.79,4.1,6.39Z"/></svg>